#!OML:ASF I:\Actors\actors\Patient Classification 2\Patient 1\Session 1\actor1.ASF
:FULLY-SPECIFIED
:DEGREES
339
root -0.737501 18.5741 6.31495 -0.648433 -2.03415 -5.22991
lowerback 10.284 1.11488 0.686922
upperback -5.68572 1.56378 -0.427686
thorax -11.9372 0.666916 -1.17116
lowerneck -15.7407 -3.16391 1.7575
upperneck -20.7392 -4.3504 0.30671
head -4.33431 -2.24613 -0.242742
rclavicle -4.87022e-015 -9.54166e-015
rhumerus 33.451 -20.0592 -29.514
rradius 134.05
rwrist -22.7943
rhand -18.2484 -35.4494
rfingers 7.12502
rthumb 8.03056 -65.2769
lclavicle -4.87022e-015 -9.54166e-015
lhumerus -54.8595 0.85828 76.9637
lradius 56.732
lwrist 2.88479
lhand -11.0589 -24.4581
lfingers 7.12502
lthumb 14.9637 4.98132
rfemur 0 0 0
rtibia 0
rfoot 0 0
rtoes 0
lfemur -2.31327 -4.4561 -9.07392
ltibia 25.2023
lfoot -25.0539 11.4121
ltoes -56.5727
340
root -0.757482 18.5676 6.34908 -0.875999 -1.67449 -5.27382
lowerback 10.562 1.00138 0.694505
upperback -6.02445 1.40065 -0.556012
thorax -12.4954 0.574549 -1.29556
lowerneck -15.7429 -3.2266 1.75358
upperneck -20.3326 -4.41752 0.397545
head -4.17474 -2.27784 -0.217165
rclavicle -1.03368e-014 -5.56597e-015
rhumerus 33.1161 -19.7248 -29.7334
rradius 134.077
rwrist -22.9168
rhand -18.2539 -35.4021
rfingers 7.12502
rthumb 8.0253 -65.2298
lclavicle -1.03368e-014 -5.56597e-015
lhumerus -55.5652 0.3841 76.7182
lradius 56.8226
lwrist 2.90112
lhand -11.1444 -24.3154
lfingers 7.12502
lthumb 14.8814 5.13011
rfemur 0 0 0
rtibia 0
rfoot 0 0
rtoes 0
lfemur -2.00617 -4.31403 -8.86528
ltibia 25.1711
lfoot -24.9381 10.8633
ltoes -56.6642
341
root -0.760146 18.5654 6.3738 -0.973134 -1.62309 -5.28737
lowerback 10.5236 0.970133 0.725693
upperback -6.1462 1.35791 -0.605635
thorax -12.6112 0.547263 -1.35982
lowerneck -15.8423 -3.19234 1.83924
upperneck -20.2221 -4.39084 0.328736
head -4.12036 -2.26782 -0.25771
rclavicle 6.95746e-015 3.97569e-015
rhumerus 33.1173 -19.7369 -29.8766
rradius 134.101
rwrist -23.0669
rhand -18.2217 -35.2988
rfingers 7.12502
rthumb 8.05639 -65.1252
lclavicle 6.95746e-015 3.97569e-015
lhumerus -55.7747 0.252761 76.6013
lradius 56.8248
lwrist 2.8405
lhand -11.1866 -24.2833
lfingers 7.12502
lthumb 14.8407 5.16527
rfemur 0 0 0
rtibia 0
rfoot 0 0
rtoes 0
lfemur -1.79109 -4.30725 -8.83198
ltibia 25.1249
lfoot -24.9751 10.754
ltoes -56.6709
342
root -0.75586 18.564 6.39195 -1.03551 -1.69694 -5.30847
lowerback 10.4315 0.984965 0.764709
upperback -6.17908 1.38505 -0.594133
thorax -12.5912 0.557616 -1.3732
lowerneck -15.9172 -3.17492 1.74901
upperneck -20.2894 -4.3553 0.341704
head -4.13064 -2.24426 -0.238227
rclavicle -6.95746e-015 1.19271e-014
rhumerus 33.2106 -19.9581 -29.8423
rradius 134.102
rwrist -23.1994
rhand -18.1092 -35.1521
rfingers 7.12502
rthumb 8.16496 -64.9744
lclavicle -6.95746e-015 1.19271e-014
lhumerus -55.7745 0.176344 76.6522
lradius 56.8111
lwrist 2.89649
lhand -11.187 -24.268
lfingers 7.12502
lthumb 14.8403 5.18052
rfemur 0 0 0
rtibia 0
rfoot 0 0
rtoes 0
lfemur -1.58132 -4.35308 -8.8508
ltibia 25.0283
lfoot -25.0459 10.8407
ltoes -56.6286
343
root -0.752349 18.5616 6.40985 -1.09674 -1.79158 -5.27336
lowerback 10.3515 0.985441 0.704593
upperback -6.28962 1.37523 -0.599983
thorax -12.6711 0.556538 -1.34383
lowerneck -15.7489 -3.10458 1.83334
upperneck -20.3949 -4.28098 0.257979
head -4.2024 -2.21194 -0.275817
rclavicle -1.37161e-014 -1.59028e-015
rhumerus 33.2772 -20.0049 -29.8315
rradius 134.101
rwrist -23.3412
rhand -18.0741 -35.015
rfingers 7.12502
rthumb 8.19879 -64.8359
lclavicle -1.37161e-014 -1.59028e-015
lhumerus -55.9541 0.0958312 76.644
lradius 56.8346
lwrist 2.99869
lhand -11.2146 -24.249
lfingers 7.12502
lthumb 14.8137 5.2015
rfemur 0 0 0
rtibia 0
rfoot 0 0
rtoes 0
lfemur -1.37453 -4.38972 -8.93442
ltibia 24.9537
lfoot -25.1403 10.9182
ltoes -56.5658
344
root -0.748621 18.5597 6.42575 -1.10587 -1.88486 -5.2664
lowerback 10.2473 0.994461 0.678824
upperback -6.38563 1.38388 -0.592234
thorax -12.7183 0.562522 -1.32189
lowerneck -15.8098 -3.03364 1.97265
upperneck -20.3926 -4.22539 0.0909224
head -4.19965 -2.19012 -0.356411
rclavicle -3.47873e-014 0
rhumerus 33.3748 -20.0913 -29.7934
rradius 134.084
rwrist -23.4416
rhand -18.043 -34.9929
rfingers 7.12502
rthumb 8.22885 -64.8126
lclavicle -3.47873e-014 0
lhumerus -56.0235 0.102097 76.6219
lradius 56.8224
lwrist 2.94108
lhand -11.2149 -24.2241
lfingers 7.12502
lthumb 14.8135 5.22646
rfemur 0 0 0
rtibia 0
rfoot 0 0
rtoes 0
lfemur -1.23703 -4.40088 -8.97309
ltibia 24.8882
lfoot -25.204 10.967
ltoes -56.5239
345
root -0.744657 18.5583 6.44082 -1.10987 -1.94516 -5.31635
lowerback 10.1519 0.980953 0.718858
upperback -6.46708 1.37437 -0.568584
thorax -12.7536 0.555278 -1.31568
lowerneck -15.7669 -2.99074 1.94851
upperneck -20.611 -4.1532 0.18375
head -4.28652 -2.15594 -0.317132
rclavicle 4.57205e-015 7.95139e-016
rhumerus 33.4701 -20.1899 -29.797
rradius 134.061
rwrist -23.4351
rhand -18.0495 -35.0101
rfingers 7.12502
rthumb 8.22258 -64.8301
lclavicle 4.57205e-015 7.95139e-016
lhumerus -56.077 0.175694 76.5637
lradius 56.8009
lwrist 2.84865
lhand -11.23 -24.2667
lfingers 7.12502
lthumb 14.7989 5.18494
rfemur 0 0 0
rtibia 0
rfoot 0 0
rtoes 0
lfemur -1.12377 -4.43884 -8.94474
ltibia 24.8304
lfoot -25.2754 11.0037
ltoes -56.4579
346
root -0.740166 18.5569 6.45801 -1.15134 -2.01243 -5.32699
lowerback 10.0871 0.995133 0.772025
upperback -6.51216 1.40175 -0.568049
thorax -12.7639 0.563396 -1.34993
lowerneck -15.5834 -3.0284 1.64749
upperneck -21.1099 -4.10762 0.612811
head -4.48999 -2.12444 -0.110913
rclavicle -1.27222e-014 -5.56597e-015
rhumerus 33.5473 -20.3833 -29.7602
rradius 134.033
rwrist -23.4952
rhand -18.1644 -34.9293
rfingers 7.12502
rthumb 8.11166 -64.7536
lclavicle -1.27222e-014 -5.56597e-015
lhumerus -56.0798 0.16404 76.562
lradius 56.8104
lwrist 2.8424
lhand -11.2496 -24.4097
lfingers 7.12502
lthumb 14.7801 5.04327
rfemur 0 0 0
rtibia 0
rfoot 0 0
rtoes 0
lfemur -0.97636 -4.46551 -8.97136
ltibia 24.8079
lfoot -25.3626 11.0416
ltoes -56.4047
347
root -0.726898 18.5573 6.47069 -1.14212 -2.24382 -5.29878
lowerback 10.052 1.03839 0.906312
upperback -6.5756 1.47643 -0.610827
thorax -12.8093 0.583708 -1.48823
lowerneck -15.5654 -3.01782 1.47656
upperneck -21.4502 -4.03698 0.875699
head -4.61446 -2.08548 0.0132319
rclavicle -1.66979e-014 -5.56597e-015
rhumerus 33.732 -20.5617 -29.8145
rradius 134.023
rwrist -23.5522
rhand -18.2188 -35.032
rfingers 7.12502
rthumb 8.05912 -64.8584
lclavicle -1.66979e-014 -5.56597e-015
lhumerus -56.0862 0.171805 76.4581
lradius 56.6912
lwrist 2.79108
lhand -11.2103 -25.1489
lfingers 7.12502
lthumb 14.8179 4.30129
rfemur 0 0 0
rtibia 0
rfoot 0 0
rtoes 0
lfemur -0.864916 -4.50224 -9.1129
ltibia 24.7977
lfoot -25.4793 11.2782
ltoes -56.403
348
root -0.697171 18.5619 6.47149 -0.988572 -2.77078 -5.27566
lowerback 10.092 1.15569 1.25961
upperback -6.7189 1.683 -0.690823
thorax -12.9822 0.64209 -1.82214
lowerneck -15.6612 -2.98213 1.42759
upperneck -21.6638 -3.97583 0.938747
head -4.67987 -2.05421 0.0449828
rclavicle -1.05356e-014 5.56597e-015
rhumerus 33.9204 -20.7294 -29.8725
rradius 134.073
rwrist -23.5588
rhand -18.2573 -35.243
rfingers 7.12502
rthumb 8.02198 -65.0708
lclavicle -1.05356e-014 5.56597e-015
lhumerus -56.0898 0.317726 76.1995
lradius 56.2266
lwrist 2.5707
lhand -11.1932 -27.1384
lfingers 7.12502
lthumb 14.8344 2.31057
rfemur 0 0 0
rtibia 0
rfoot 0 0
rtoes 0
lfemur -0.872459 -4.66746 -9.38973
ltibia 24.7666
lfoot -25.7575 11.8917
ltoes -56.272
349
root -0.69348 18.5615 6.48278 -0.997104 -2.82644 -5.30155
lowerback 10.1085 1.14827 1.31836
upperback -6.79188 1.68381 -0.684198
thorax -13.076 0.635597 -1.85032
lowerneck -15.1059 -2.9735 1.31516
upperneck -22.7572 -3.92186 1.07048
head -4.55068 -2.02978 0.0894076
rclavicle -1.51076e-014 -2.3059e-014
rhumerus 34.0668 -20.9594 -29.8881
rradius 134.125
rwrist -23.624
rhand -18.237 -35.1505
rfingers 7.12502
rthumb 8.04164 -64.9775
lclavicle -1.51076e-014 -2.3059e-014
lhumerus -56.156 0.178527 76.38
lradius 56.7215
lwrist 2.82215
lhand -11.2963 -25.0959
lfingers 7.12502
lthumb 14.7351 4.36035
rfemur 0 0 0
rtibia 0
rfoot 0 0
rtoes 0
lfemur -0.797175 -4.72334 -9.40048
ltibia 24.756
lfoot -25.8607 11.9408
ltoes -56.1981
350
root -0.717082 18.5546 6.50842 -1.19304 -2.42814 -5.32895
lowerback 10.0169 1.01051 0.999402
upperback -6.7455 1.45539 -0.597304
thorax -12.9836 0.563192 -1.52394
lowerneck -14.9379 -2.96599 1.07424
upperneck -23.1876 -3.8512 1.28411
head -4.70208 -1.98601 0.204517
rclavicle -2.66371e-014 3.18055e-015
rhumerus 34.2376 -21.2227 -29.9327
rradius 134.155
rwrist -23.7564
rhand -18.1596 -35.0601
rfingers 7.12502
rthumb 8.11626 -64.8842
lclavicle -2.66371e-014 3.18055e-015
lhumerus -56.191 0.149129 76.4211
lradius 56.9009
lwrist 2.9385
lhand -11.2699 -24.4165
lfingers 7.12502
lthumb 14.7605 5.03788
rfemur 0 0 0
rtibia 0
rfoot 0 0
rtoes 0
lfemur -0.577711 -4.57684 -9.18083
ltibia 24.7398
lfoot -25.7003 11.418
ltoes -56.3236
351
root -0.722686 18.546 6.52396 -1.30381 -2.29547 -5.34198
lowerback 9.97826 0.937965 0.912871
upperback -6.73545 1.34659 -0.566914
thorax -12.954 0.521741 -1.418
lowerneck -15.5582 -2.92332 1.34706
upperneck -22.8381 -3.8805 0.952077
head -4.51604 -2.0072 0.0408741
rclavicle 9.34288e-015 -3.18055e-015
rhumerus 34.4034 -21.4409 -29.9936
rradius 134.185
rwrist -23.8488
rhand -18.2641 -35.0706
rfingers 7.12502
rthumb 8.0154 -64.8986
lclavicle 9.34288e-015 -3.18055e-015
lhumerus -56.2115 0.209203 76.3657
lradius 56.8942
lwrist 2.94484
lhand -11.2667 -24.5104
lfingers 7.12502
lthumb 14.7636 4.94384
rfemur 0 0 0
rtibia 0
rfoot 0 0
rtoes 0
lfemur -0.418491 -4.50673 -9.10954
ltibia 24.7147
lfoot -25.6172 11.2361
ltoes -56.3925
